# xmcd
#
# Track frame offsets:
# 150
# 15992
# 28840
# 45258
# 57941
# 68634
# 87303
# 99026
# 111686
# 122808
#
# Disc length: 1799 seconds
#
#
# Revision: 0
# Processed by: cddbd v1.5PL3 Copyright (c) Steve Scherf et al.
# Submitted via: FreeRIP 2.53 
#
DISCID=7807050a
DTITLE=Anderson, Bill - Greatest Songs
DYEAR=1900
DGENRE=
TTITLE0=Mama Sang A Song
TTITLE1=Still
TTITLE2=Corner Of My Life
TTITLE3=Po Folks
TTITLE4=I Get The Fever
TTITLE5=The Tips Of My Fingers
TTITLE6=Three A.M.
TTITLE7=I Love You Drops
TTITLE8=Wild Weekend
TTITLE9=Bright Lights And Country Music
EXTD=
EXTT0=
EXTT1=
EXTT2=
EXTT3=
EXTT4=
EXTT5=
EXTT6=
EXTT7=
EXTT8=
EXTT9=
PLAYORDER=
